<svg xmlns="http://www.w3.org/2000/svg" id="Capa_2" viewBox="0 0 329.78 63.05"><defs><style>      .cls-1 {        fill: #fff;      }    </style></defs><g id="Capa_1-2" data-name="Capa_1"><path class="cls-1" d="M0,37c0-12.54,8.68-20.43,19.73-20.43s19.73,7.89,19.73,20.43v21.04c0,2.72-2.19,4.91-4.82,4.91s-4.82-2.19-4.82-4.91v-21.4c0-7.28-4.47-11.14-10.08-11.14s-10.08,3.86-10.08,11.14v21.4c0,2.72-2.1,4.91-4.82,4.91s-4.82-2.19-4.82-4.91v-21.04Z"></path><path class="cls-1" d="M57.61,21.48c0-2.72,2.1-4.82,4.82-4.82s4.82,2.1,4.82,4.82v21.4c0,7.37,4.47,11.22,10.08,11.22s10.08-3.86,10.08-11.22v-21.4c0-2.72,2.1-4.82,4.82-4.82s4.82,2.1,4.82,4.82v21.04c0,12.54-8.68,20.52-19.73,20.52s-19.73-7.98-19.73-20.52v-21.04Z"></path><path class="cls-1" d="M124.86,57.61v.44c0,2.72-2.1,4.91-4.82,4.91s-4.82-2.19-4.82-4.91V4.82c0-2.72,2.1-4.82,4.82-4.82s4.82,2.1,4.82,4.82v17.27c3.86-3.51,8.94-5.52,14.56-5.52,12.63,0,22.18,10.26,22.18,23.24s-9.56,23.24-22.18,23.24c-5.61,0-10.7-2.02-14.56-5.44ZM151.87,39.81c0-8.15-5.96-14.29-13.5-14.29s-13.24,5.87-13.5,13.68v.61c0,8.15,5.96,14.29,13.5,14.29s13.5-6.14,13.5-14.29Z"></path><path class="cls-1" d="M236.22,48.05c1.4,0,2.63.61,3.33,1.75,1.32,1.93,3.16,4.56,6.93,4.56,2.89,0,5-2.19,5-4.74,0-3.6-3.33-5-7.45-6.4-5.52-1.93-11.75-4.3-11.75-13.33,0-7.45,6.14-13.33,14.21-13.33,7.45,0,14.29,4.56,14.29,10.08,0,2.46-2.02,4.3-4.47,4.3-.96,0-2.19-.35-2.81-1.58-1.49-1.67-3.59-4.21-7.01-4.21-2.98,0-4.91,2.19-4.91,4.74,0,3.6,3.68,4.74,8.15,6.23,5.35,1.67,11.4,4.47,11.4,13.24,0,7.37-6.4,13.68-14.64,13.68-7.8,0-14.64-5.09-14.64-10.52,0-2.46,1.93-4.47,4.38-4.47Z"></path><path class="cls-1" d="M271.91,21.92c0-2.54,2.02-4.47,4.47-4.47h3.16v-6.58c0-2.72,2.1-4.82,4.82-4.82s4.82,2.1,4.82,4.82v6.58h10.26c2.46,0,4.47,1.93,4.47,4.47s-2.02,4.47-4.47,4.47h-10.26v15.87c0,7.72,4.3,11.66,10.26,11.66,2.46,0,4.47,2.02,4.47,4.47s-2.02,4.56-4.47,4.56c-11.31,0-19.9-7.98-19.9-20.69v-15.87h-3.16c-2.46,0-4.47-2.02-4.47-4.47Z"></path><path class="cls-1" d="M318.38,5.88c0-3.16,2.54-5.7,5.7-5.7s5.7,2.54,5.7,5.7-2.54,5.7-5.7,5.7-5.7-2.63-5.7-5.7ZM319.26,21.48c0-2.72,2.1-4.82,4.82-4.82s4.82,2.1,4.82,4.82v36.56c0,2.72-2.1,4.91-4.82,4.91s-4.82-2.19-4.82-4.91V21.48Z"></path><path class="cls-1" d="M197.28,16.57c-14.43,0-21.13,12.51-21.13,23.24,0,12.98,10,23.24,23.24,23.24,7.45,0,13.89-3.24,17.22-7.28.88-.96,1.4-2.19,1.4-3.16,0-2.72-2.02-4.65-4.73-4.65-1.84,0-2.81,1.05-4.21,2.19-2.1,2.19-5.56,3.95-9.68,3.95-7.63,0-13.5-6.4-13.5-14.29,0-6.67,3.99-14.29,12.06-14.29,7.15,0,10.25,4.39,11.45,10.06h-9.52c-2.16,0-3.91,1.75-3.91,3.91h0c0,2.16,1.75,3.91,3.91,3.91h16c1.99,0,3.62-1.59,3.68-3.58h0c.35-12.75-6.64-23.25-22.28-23.25Z"></path></g></svg>
